<svg width="485.352" height="72.755" viewBox="0 0 485.352 72.755" xmlns="http://www.w3.org/2000/svg"><g id="svgGroup" stroke-linecap="round" fill-rule="evenodd" font-size="9pt" stroke="#000" stroke-width="0.25mm" fill="#000" style="stroke:#000;stroke-width:0.25mm;fill:#000"><path d="M 424.659 71.582 L 424.659 0 L 444.971 0 L 444.971 36.914 L 459.815 19.727 L 484.278 19.727 L 465.675 37.891 L 485.352 71.582 L 462.94 71.582 L 452.442 50.781 L 444.971 58.105 L 444.971 71.582 L 424.659 71.582 Z M 123.829 19.727 L 123.829 71.582 L 105.274 71.582 L 105.274 63.184 Q 102.062 67.19 98.806 69.411 A 18.687 18.687 0 0 1 96.9 70.557 A 18.41 18.41 0 0 1 92.194 72.205 Q 90.087 72.651 87.661 72.735 A 32.971 32.971 0 0 1 86.524 72.754 A 22.05 22.05 0 0 1 81.113 72.127 A 15.175 15.175 0 0 1 73.658 67.847 Q 70.086 64.088 69.25 57.22 A 37.191 37.191 0 0 1 68.995 52.734 L 68.995 19.727 L 88.966 19.727 L 88.966 48.242 A 20.824 20.824 0 0 0 89.093 50.636 Q 89.38 53.107 90.313 54.564 A 5.011 5.011 0 0 0 90.772 55.176 A 5.893 5.893 0 0 0 94.171 57.073 A 8.757 8.757 0 0 0 95.85 57.227 Q 99.415 57.227 101.685 54.492 A 7.49 7.49 0 0 0 102.883 52.359 Q 103.714 50.18 103.901 46.769 A 38.169 38.169 0 0 0 103.956 44.678 L 103.956 19.727 L 123.829 19.727 Z M 337.843 48.34 L 337.843 50.586 L 297.999 50.586 A 20.95 20.95 0 0 0 298.474 53.307 Q 299.169 56.094 300.587 57.715 A 9.312 9.312 0 0 0 307.392 61.063 A 12.231 12.231 0 0 0 308.106 61.084 Q 311.036 61.084 313.673 59.619 Q 315.284 58.691 317.139 56.348 L 336.72 58.154 Q 332.227 65.967 325.88 69.36 Q 319.801 72.61 308.661 72.748 A 80.552 80.552 0 0 1 307.667 72.754 A 59.579 59.579 0 0 1 301.657 72.47 Q 298.635 72.163 296.117 71.523 A 23.873 23.873 0 0 1 291.456 69.849 A 22.737 22.737 0 0 1 283.597 63.396 A 28.813 28.813 0 0 1 281.666 60.62 Q 277.784 54.297 277.784 45.752 A 30.838 30.838 0 0 1 279.069 36.639 A 24.481 24.481 0 0 1 285.572 26.074 Q 293.075 18.83 306.084 18.565 A 48.9 48.9 0 0 1 307.081 18.555 A 60.192 60.192 0 0 1 313.581 18.884 Q 320.228 19.608 324.659 21.924 Q 331.104 25.293 334.473 31.689 A 26.443 26.443 0 0 1 336.747 37.899 Q 337.432 40.769 337.688 44.13 A 55.29 55.29 0 0 1 337.843 48.34 Z M 37.013 0 L 57.081 0 L 57.081 71.582 L 38.477 71.582 L 38.477 63.916 A 43.608 43.608 0 0 1 36.218 66.535 Q 33.614 69.306 31.348 70.508 Q 27.052 72.754 21.778 72.754 A 22.099 22.099 0 0 1 14.672 71.668 A 17.802 17.802 0 0 1 5.592 64.697 A 30.947 30.947 0 0 1 0.547 51.981 A 41.557 41.557 0 0 1 0.001 45.117 Q 0.001 36.242 2.929 30.237 A 20.731 20.731 0 0 1 6.178 25.391 A 20.067 20.067 0 0 1 20.699 18.581 A 25.683 25.683 0 0 1 21.876 18.555 Q 26.514 18.555 30.299 20.117 Q 34.083 21.68 37.013 24.805 L 37.013 0 Z M 180.372 71.582 L 180.372 0 L 200.44 0 L 200.44 24.805 Q 203.419 21.68 207.203 20.117 A 20.742 20.742 0 0 1 213.195 18.665 A 25.215 25.215 0 0 1 215.577 18.555 A 21.51 21.51 0 0 1 224.17 20.231 A 20.49 20.49 0 0 1 231.251 25.366 Q 237.452 32.178 237.452 44.922 A 43.391 43.391 0 0 1 236.83 52.442 A 32.572 32.572 0 0 1 234.62 59.888 A 25.133 25.133 0 0 1 231.726 64.923 A 18.877 18.877 0 0 1 226.783 69.556 Q 221.778 72.754 215.675 72.754 A 21.127 21.127 0 0 1 208.618 71.594 A 19.688 19.688 0 0 1 206.104 70.508 A 14.968 14.968 0 0 1 203.789 68.939 Q 201.656 67.21 199.301 64.32 A 50.897 50.897 0 0 1 198.975 63.916 L 198.975 71.582 L 180.372 71.582 Z M 384.327 10.205 L 404.249 0 L 404.249 19.727 L 415.186 19.727 L 415.186 34.229 L 404.249 34.229 L 404.249 52.637 A 27.564 27.564 0 0 0 404.279 53.982 Q 404.379 56.013 404.806 56.886 A 2.084 2.084 0 0 0 404.884 57.031 Q 405.851 58.676 408.256 58.691 A 7.132 7.132 0 0 0 408.302 58.691 A 10.723 10.723 0 0 0 409.761 58.58 Q 411.673 58.315 414.454 57.422 L 415.919 71.143 Q 408.546 72.754 402.149 72.754 Q 395.683 72.754 392.181 71.308 A 10.242 10.242 0 0 1 391.212 70.85 A 11.557 11.557 0 0 1 386.119 65.304 A 14.344 14.344 0 0 1 386.012 65.063 Q 384.634 61.89 384.383 55.502 A 76.768 76.768 0 0 1 384.327 52.49 L 384.327 34.229 L 377.003 34.229 L 377.003 19.727 L 384.327 19.727 L 384.327 10.205 Z M 136.085 71.582 L 136.085 19.727 L 154.688 19.727 L 154.688 28.223 Q 157.13 23.207 159.712 21.036 A 9.305 9.305 0 0 1 160.23 20.63 A 10.691 10.691 0 0 1 164.675 18.778 A 14.638 14.638 0 0 1 167.286 18.555 A 16.615 16.615 0 0 1 171.588 19.156 Q 173.474 19.661 175.49 20.591 A 31.831 31.831 0 0 1 176.905 21.289 L 170.753 35.449 Q 167.237 33.984 165.186 33.984 Q 161.498 33.984 159.376 36.858 A 8.904 8.904 0 0 0 159.132 37.207 A 12.699 12.699 0 0 0 157.645 40.387 Q 156.577 43.654 156.227 48.766 A 79.811 79.811 0 0 0 156.055 54.199 L 156.055 71.582 L 136.085 71.582 Z M 247.706 71.582 L 247.706 19.727 L 267.579 19.727 L 267.579 71.582 L 247.706 71.582 Z M 347.022 71.582 L 347.022 51.66 L 368.263 51.66 L 368.263 71.582 L 347.022 71.582 Z M 202.387 54.646 A 7.467 7.467 0 0 0 202.808 55.2 A 8.411 8.411 0 0 0 205.553 57.402 A 8.127 8.127 0 0 0 209.18 58.203 A 7.309 7.309 0 0 0 214.689 55.787 A 9.975 9.975 0 0 0 215.162 55.249 A 8.555 8.555 0 0 0 216.532 52.759 Q 217.413 50.359 217.553 46.723 A 36.829 36.829 0 0 0 217.579 45.313 A 25.436 25.436 0 0 0 217.392 42.111 Q 216.947 38.622 215.45 36.587 A 7.282 7.282 0 0 0 215.211 36.279 A 8.585 8.585 0 0 0 213.251 34.496 A 6.813 6.813 0 0 0 209.473 33.398 A 8.887 8.887 0 0 0 206.001 34.058 A 8.372 8.372 0 0 0 202.857 36.401 A 9.38 9.38 0 0 0 201.162 39.453 Q 200.68 40.841 200.466 42.552 A 23.811 23.811 0 0 0 200.294 45.508 Q 200.294 51.611 202.387 54.646 Z M 37.159 45.508 A 22.912 22.912 0 0 0 36.931 42.157 Q 36.678 40.449 36.143 39.077 A 9.137 9.137 0 0 0 34.571 36.401 A 8.528 8.528 0 0 0 31.436 34.058 A 8.628 8.628 0 0 0 28.028 33.398 A 7.08 7.08 0 0 0 22.686 35.744 A 9.674 9.674 0 0 0 22.218 36.279 Q 20.118 38.86 19.899 44.576 A 35.893 35.893 0 0 0 19.874 45.947 Q 19.874 52.295 22.291 55.249 A 8.512 8.512 0 0 0 24.444 57.162 A 7.221 7.221 0 0 0 28.272 58.203 A 7.926 7.926 0 0 0 34.215 55.672 A 10.134 10.134 0 0 0 34.62 55.225 A 8.799 8.799 0 0 0 36.142 52.53 Q 37.058 50.047 37.149 46.342 A 33.917 33.917 0 0 0 37.159 45.508 Z M 247.706 13.525 L 247.706 0 L 267.579 0 L 267.579 13.525 L 247.706 13.525 Z M 298.048 41.064 L 317.628 41.064 A 23.766 23.766 0 0 0 317.146 38.082 Q 316.378 34.788 314.718 33.009 A 6.912 6.912 0 0 0 314.527 32.812 Q 312.013 30.322 307.911 30.322 A 9.588 9.588 0 0 0 304.01 31.094 Q 301.991 31.982 300.489 33.892 A 11.539 11.539 0 0 0 300.343 34.082 A 8.934 8.934 0 0 0 299.173 36.163 Q 298.356 38.157 298.05 41.042 A 27.604 27.604 0 0 0 298.048 41.064 Z" vector-effect="non-scaling-stroke"/></g></svg>